<svg height="18" width="18" viewBox="0 0 24 24"><path fill-rule="evenodd" d="M8 7.1a1.35 1.35 0 1 0 0-2.7 1.35 1.35 0 0 0 0 2.7Zm0 1.4c1.259 0 2.32-.846 2.646-2H21.25a.75.75 0 0 0 0-1.5H10.646a2.751 2.751 0 0 0-5.292 0H2.75a.75.75 0 0 0 0 1.5h2.604A2.751 2.751 0 0 0 8 8.5Zm8 4.85a1.35 1.35 0 1 0 0-2.7 1.35 1.35 0 0 0 0 2.7Zm2.646-.6a2.751 2.751 0 0 1-5.293 0H2.75a.75.75 0 0 1 0-1.5h10.604a2.751 2.751 0 0 1 5.293 0h2.603a.75.75 0 0 1 0 1.5h-2.604Zm-9.296 5.5a1.35 1.35 0 1 1-2.7 0 1.35 1.35 0 0 1 2.7 0Zm1.296.75a2.751 2.751 0 0 1-5.292 0H2.75a.75.75 0 0 1 0-1.5h2.604a2.751 2.751 0 0 1 5.292 0H21.25a.75.75 0 0 1 0 1.5H10.646Z" clip-rule="evenodd"></path></svg>